# File created by Blade
# Date/Time:  Tue Apr 07 21:25:57 2015
# Frame Rate: 120.000 fps
#------------------------------------------------------
:FULLY-SPECIFIED
:DEGREES
614
root -1.097272 30.896605 4.180891 -2.226962 -51.193585 24.793269
Spine -3.586079 -18.774330 -10.421046
Head 8.163565 -17.827031 -1.320333
LeftShoulder -30.506383 49.198694 3.917332
LeftArm 50.784998 -30.378899 -86.006716
LeftForeArm -3.675463 -0.000000 -6.197406
LeftHand 12.820697 -0.000000 13.992173
LeftHandThumb1 -26.253704 0.000000 33.147579
RightShoulder -10.945596 3.979972 -34.872242
RightArm 4.784317 32.022845 38.673445
RightForeArm -2.524771 -0.000000 14.100775
RightHand 18.857053 -0.000000 -16.535904
RightHandThumb1 -24.326973 -0.000000 -32.862282
LeftUpLeg -12.955240 0.070404 17.802432
LeftLeg 1.459344 -0.000000 -0.000000
LeftFoot 0.613673 16.924082 -17.442363
LeftToeBase -12.529340 -0.000000 0.000000
RightUpLeg -39.087670 -9.637479 -3.271334
RightLeg 47.569483 -0.000000 -0.000000
RightFoot -30.285458 -28.370114 12.992667
RightToeBase -10.671874 -0.000000 0.000000
615
root -1.161335 30.947305 4.085239 -0.901647 -49.665589 23.832576
Spine -3.681985 -19.470184 -10.231508
Head 9.161681 -18.469103 -0.559683
LeftShoulder -29.511134 48.281764 4.369660
LeftArm 51.687680 -30.183667 -88.001450
LeftForeArm -3.086885 -0.000000 -5.519341
LeftHand 13.676485 -0.000000 16.098349
LeftHandThumb1 -26.253704 0.000000 33.147579
RightShoulder -10.922144 4.730851 -34.324301
RightArm 5.907987 31.922946 40.225864
RightForeArm -3.031923 -0.000000 13.869983
RightHand 18.838585 -0.000000 -15.845943
RightHandThumb1 -24.326973 -0.000000 -32.862282
LeftUpLeg -16.274173 -1.854147 16.853519
LeftLeg 1.918238 -0.000000 -0.000000
LeftFoot -0.358114 17.510713 -17.638739
LeftToeBase -13.290193 -0.000000 0.000000
RightUpLeg -39.038556 -9.821517 -2.758139
RightLeg 46.777701 -0.000000 -0.000000
RightFoot -29.880583 -29.981911 12.653834
RightToeBase -9.573834 -0.000000 0.000000
616
root -1.208585 31.045273 4.016520 0.594096 -48.459264 23.000989
Spine -4.252021 -19.931719 -9.826227
Head 10.262604 -19.238983 -0.048149
LeftShoulder -28.576815 47.473118 4.634758
LeftArm 52.701445 -30.256671 -90.213363
LeftForeArm -1.077547 -0.000000 -4.835894
LeftHand 14.465536 -0.000000 18.136631
LeftHandThumb1 -26.253704 0.000000 33.147579
RightShoulder -10.780333 5.191933 -33.822952
RightArm 6.981954 31.760284 41.775176
RightForeArm -3.444081 -0.000000 13.919902
RightHand 18.622433 -0.000000 -15.454100
RightHandThumb1 -24.326973 -0.000000 -32.862282
LeftUpLeg -19.811005 -3.799638 15.974953
LeftLeg 2.841004 -0.000000 -0.000000
LeftFoot -1.152326 18.724626 -17.596258
LeftToeBase -13.908603 -0.000000 0.000000
RightUpLeg -39.283808 -9.909027 -2.286644
RightLeg 45.802983 -0.000000 -0.000000
RightFoot -29.173867 -30.973143 12.442042
RightToeBase -8.875200 -0.000000 0.000000
617
root -1.257857 31.178025 3.965930 1.623788 -47.646557 22.392943
Spine -4.517670 -19.982007 -9.648088
Head 11.188639 -20.111593 0.534386
LeftShoulder -27.804543 46.787430 4.801478
LeftArm 53.788838 -30.187503 -92.216266
LeftForeArm 1.298382 0.000000 -4.237825
LeftHand 15.241712 -0.000000 19.392422
LeftHandThumb1 -26.253704 0.000000 33.147579
RightShoulder -10.626273 4.989728 -33.257999
RightArm 8.422627 31.738402 43.570408
RightForeArm -3.544972 -0.000000 14.117880
RightHand 18.575866 -0.000000 -14.899194
RightHandThumb1 -24.326973 -0.000000 -32.862282
LeftUpLeg -22.885268 -5.560872 15.057948
LeftLeg 4.013953 -0.000000 -0.000000
LeftFoot -1.750505 19.722730 -17.991671
LeftToeBase -13.500203 -0.000000 0.000000
RightUpLeg -39.171001 -9.764043 -2.000546
RightLeg 44.628289 -0.000000 -0.000000
RightFoot -28.433208 -31.867051 12.302985
RightToeBase -9.312508 -0.000000 0.000000
618
root -1.318046 31.329811 3.930297 2.128294 -47.232049 21.940291
Spine -4.319582 -19.561675 -9.733588
Head 11.830158 -21.113946 1.225645
LeftShoulder -26.950658 46.306071 5.121183
LeftArm 54.552302 -29.616750 -93.581937
LeftForeArm 3.450079 -0.000000 -3.528206
LeftHand 15.297480 -0.000000 20.164476
LeftHandThumb1 -26.253704 0.000000 33.147579
RightShoulder -10.459041 4.740524 -32.702039
RightArm 9.619572 31.303808 45.147602
RightForeArm -3.519080 -0.000000 14.508687
RightHand 18.353959 -0.000000 -14.255200
RightHandThumb1 -24.326973 -0.000000 -32.862282
LeftUpLeg -25.331952 -7.022825 14.031711
LeftLeg 5.230250 -0.000000 -0.000000
LeftFoot -1.781559 20.310163 -17.940450
LeftToeBase -13.331307 -0.000000 0.000000
RightUpLeg -38.564100 -9.479692 -1.837938
RightLeg 43.243631 -0.000000 -0.000000
RightFoot -27.643055 -32.382815 12.322337
RightToeBase -9.850337 -0.000000 0.000000
619
root -1.388551 31.498513 3.910548 2.450180 -47.005979 21.464101
Spine -3.942073 -18.732931 -9.848646
Head 12.420019 -22.137834 1.801510
LeftShoulder -25.859916 46.299843 5.567439
LeftArm 55.286454 -28.553471 -94.367238
LeftForeArm 4.639138 -0.000000 -2.895625
LeftHand 15.676650 -0.000000 20.387902
LeftHandThumb1 -26.253704 0.000000 33.147579
RightShoulder -10.448753 4.092537 -32.250725
RightArm 10.819238 30.350483 46.592715
RightForeArm -3.471348 -0.000000 14.958240
RightHand 18.416345 -0.000000 -13.690237
RightHandThumb1 -24.326973 -0.000000 -32.862282
LeftUpLeg -27.377390 -8.157610 12.945816
LeftLeg 6.278358 -0.000000 -0.000000
LeftFoot -1.085373 20.259831 -16.840869
LeftToeBase -13.128275 -0.000000 0.000000
RightUpLeg -37.591219 -9.226977 -1.670281
RightLeg 41.599455 -0.000000 -0.000000
RightFoot -26.614866 -32.335346 12.161583
RightToeBase -9.602371 -0.000000 0.000000
620
root -1.478141 31.681107 3.895981 2.647807 -46.987923 20.890744
Spine -3.400669 -17.626525 -9.963287
Head 12.974593 -23.000180 2.425843
LeftShoulder -24.554627 46.370122 6.269631
LeftArm 55.515583 -27.115472 -94.354878
LeftForeArm 4.776114 -0.000000 -2.240147
LeftHand 15.833883 -0.000000 20.573099
LeftHandThumb1 -26.253704 0.000000 33.147579
RightShoulder -10.455382 3.468343 -31.789645
RightArm 11.786971 29.154913 47.751961
RightForeArm -3.591683 -0.000000 15.563092
RightHand 18.311001 -0.000000 -13.366325
RightHandThumb1 -24.326973 -0.000000 -32.862282
LeftUpLeg -28.893832 -8.821047 11.795067
LeftLeg 6.882125 -0.000000 -0.000000
LeftFoot 0.108588 19.366237 -15.052252
LeftToeBase -13.633017 -0.000000 0.000000
RightUpLeg -36.193803 -8.955793 -1.455873
RightLeg 39.577416 -0.000000 -0.000000
RightFoot -25.354053 -31.989935 11.580117
RightToeBase -9.006663 -0.000000 0.000000
